<svg xmlns="http://www.w3.org/2000/svg" viewBox="0 0 32 32">
	<defs>
		<style>
            .cls-1 {
                fill: #868893;
            }
		</style>
	</defs>
	<path class="cls-1" d="M16,0A16,16,0,1,0,32,16,16.018,16.018,0,0,0,16,0Zm0,30.769A14.769,14.769,0,1,1,30.769,16,14.786,14.786,0,0,1,16,30.769Z" transform="translate(0)"/>
	<path class="cls-1" d="M28.127,16.18a.615.615,0,0,0-.87,0l-5.1,5.1-5.1-5.1a.615.615,0,1,0-.87.87l5.1,5.1-5.1,5.1a.615.615,0,1,0,.87.87l5.1-5.1,5.1,5.1a.615.615,0,0,0,.87-.87l-5.1-5.1,5.1-5.1A.615.615,0,0,0,28.127,16.18Z" transform="translate(-6.154 -6.154)"/>
</svg> 