<svg xmlns="http://www.w3.org/2000/svg" viewBox="0 0 32 31.217">
  <defs>
    <style>
      .cls-1 {
        fill: #b6b8c3;
      }
    </style>
  </defs>
  <g transform="translate(0 -5.365)">
    <path class="cls-1" d="M29.854,13.334a15.93,15.93,0,0,0-5.823-5.823A15.65,15.65,0,0,0,16,5.365,15.651,15.651,0,0,0,7.969,7.511a15.929,15.929,0,0,0-5.823,5.823A15.651,15.651,0,0,0,0,21.364,15.549,15.549,0,0,0,3.052,30.77a15.67,15.67,0,0,0,7.885,5.781.932.932,0,0,0,.833-.146.815.815,0,0,0,.271-.625q0-.062-.011-1.125T12.02,32.8l-.479.083a6.112,6.112,0,0,1-1.156.073,8.809,8.809,0,0,1-1.448-.146,3.235,3.235,0,0,1-1.4-.625,2.643,2.643,0,0,1-.916-1.281l-.208-.479a5.206,5.206,0,0,0-.656-1.062,2.514,2.514,0,0,0-.906-.792l-.146-.1a1.529,1.529,0,0,1-.271-.25,1.143,1.143,0,0,1-.187-.292q-.063-.146.1-.24a1.351,1.351,0,0,1,.6-.093l.417.062a3.041,3.041,0,0,1,1.031.5,3.362,3.362,0,0,1,1.01,1.083,3.672,3.672,0,0,0,1.156,1.3,2.453,2.453,0,0,0,1.364.448,5.924,5.924,0,0,0,1.187-.1,4.144,4.144,0,0,0,.937-.313,3.375,3.375,0,0,1,1.021-2.146,14.265,14.265,0,0,1-2.135-.375,8.5,8.5,0,0,1-1.958-.813,5.609,5.609,0,0,1-1.677-1.4,6.708,6.708,0,0,1-1.094-2.188,10.4,10.4,0,0,1-.427-3.125,6.076,6.076,0,0,1,1.646-4.292,5.6,5.6,0,0,1,.146-4.25,2.919,2.919,0,0,1,1.792.281,12.526,12.526,0,0,1,1.74.8q.552.333.885.562a15.046,15.046,0,0,1,8,0l.792-.5a11.212,11.212,0,0,1,1.916-.917A2.73,2.73,0,0,1,24.4,11.99a5.546,5.546,0,0,1,.166,4.25,6.078,6.078,0,0,1,1.646,4.292,10.519,10.519,0,0,1-.427,3.135,6.447,6.447,0,0,1-1.1,2.188,5.824,5.824,0,0,1-1.688,1.385,8.519,8.519,0,0,1-1.958.813,14.25,14.25,0,0,1-2.135.375,3.711,3.711,0,0,1,1.083,2.958v4.4a.83.83,0,0,0,.261.625.9.9,0,0,0,.823.146,15.668,15.668,0,0,0,7.886-5.781A15.553,15.553,0,0,0,32,21.364,15.663,15.663,0,0,0,29.854,13.334Z"/>
  </g>
</svg>