<?xml version="1.0" standalone="no"?>
<!DOCTYPE svg PUBLIC "-//W3C//DTD SVG 20010904//EN"
 "http://www.w3.org/TR/2001/REC-SVG-20010904/DTD/svg10.dtd">
<svg version="1.0" xmlns="http://www.w3.org/2000/svg"
 width="700.000000pt" height="700.000000pt" viewBox="0 0 700.000000 700.000000"
 preserveAspectRatio="xMidYMid meet">
<g transform="translate(0.000000,700.000000) scale(0.100000,-0.100000)"
fill="#000000" stroke="none">
<path d="M725 6520 c-2 -4 -4 -1367 -4 -3029 l0 -3022 432 3 432 3 53 145 c30
80 71 192 92 250 20 58 117 323 215 590 97 267 237 649 310 850 115 315 135
362 143 340 6 -14 56 -142 112 -285 56 -143 133 -341 172 -440 38 -99 73 -189
78 -200 5 -11 30 -74 55 -140 26 -66 102 -262 170 -435 68 -173 148 -380 179
-460 31 -80 64 -161 72 -181 l16 -36 248 0 248 0 16 36 c9 20 72 180 141 356
69 176 129 329 134 340 5 11 41 101 79 200 39 99 114 290 167 425 53 135 124
315 157 400 33 85 63 164 68 175 5 11 27 64 48 118 l38 98 43 -113 c23 -62 55
-147 70 -188 16 -41 61 -160 101 -265 40 -104 81 -212 91 -240 10 -27 36 -97
59 -155 23 -58 45 -116 50 -130 4 -14 40 -108 80 -210 39 -102 73 -192 75
-202 2 -9 11 -30 19 -47 9 -17 16 -32 16 -33 -2 -4 131 -360 191 -514 l20 -52
434 -1 434 -2 0 3029 0 3028 -416 0 -415 -1 -68 -175 c-38 -96 -150 -382 -248
-635 -99 -253 -203 -521 -232 -595 -28 -74 -58 -148 -65 -165 -7 -16 -43 -109
-80 -205 -37 -96 -68 -176 -70 -178 -2 -2 -16 32 -33 75 -17 43 -66 170 -110
283 -44 113 -141 363 -216 555 -75 193 -140 359 -146 370 -5 11 -36 92 -70
180 -33 88 -65 169 -70 180 -5 11 -32 81 -61 155 -28 74 -53 140 -56 146 -6
15 -851 15 -857 0 -2 -6 -63 -164 -135 -350 -73 -187 -152 -389 -175 -450 -24
-61 -83 -212 -130 -336 -48 -124 -95 -245 -106 -270 -10 -25 -33 -83 -50 -130
-18 -47 -36 -94 -41 -105 -4 -11 -32 -80 -60 -154 l-52 -134 -22 59 c-39 101
-445 1156 -470 1219 -37 93 -215 554 -236 611 l-19 50 -421 0 c-231 1 -422 -2
-424 -6z m2798 -925 c14 -38 44 -122 67 -185 23 -63 59 -164 81 -225 21 -60
43 -119 48 -130 5 -11 16 -40 24 -65 8 -25 88 -245 177 -490 89 -245 168 -465
176 -490 8 -25 19 -54 25 -65 5 -11 13 -33 18 -50 5 -16 30 -88 56 -160 25
-71 54 -151 62 -178 l16 -47 -63 -163 c-34 -89 -87 -225 -117 -302 -29 -77
-58 -149 -63 -160 -5 -11 -52 -135 -105 -275 -113 -297 -248 -650 -346 -905
-38 -100 -69 -187 -69 -195 -1 -12 -3 -11 -11 2 -8 15 -289 748 -353 923 -36
96 -216 568 -226 590 -5 11 -27 67 -49 125 -22 58 -66 173 -99 256 -32 84 -58
158 -56 165 1 8 19 59 39 114 75 202 115 314 180 495 36 102 70 194 75 205 5
11 113 309 241 663 135 372 236 637 240 630 4 -7 18 -44 32 -83z m-2088 -440
c176 -479 254 -687 308 -825 35 -91 103 -265 151 -387 l86 -222 -39 -103 c-86
-225 -202 -524 -211 -543 -5 -11 -15 -37 -22 -57 -31 -89 -303 -788 -308 -788
-3 0 -5 679 -6 1510 0 957 4 1504 10 1493 5 -9 19 -44 31 -78z m4180 -1450 l0
-1515 -21 47 c-12 27 -40 95 -62 153 -39 102 -93 240 -303 780 -55 140 -125
318 -155 395 l-54 140 71 180 c39 99 86 218 104 265 111 290 207 538 215 555
5 11 20 49 33 85 14 36 53 137 87 225 34 88 66 170 71 183 5 12 10 22 11 22 2
0 3 -682 3 -1515z"/>
</g>
</svg>
